<?xml version="1.0" standalone="no"?>
<!DOCTYPE svg PUBLIC "-//W3C//DTD SVG 20010904//EN"
 "http://www.w3.org/TR/2001/REC-SVG-20010904/DTD/svg10.dtd">
<svg version="1.0" xmlns="http://www.w3.org/2000/svg"
 width="2501.000000pt" height="2501.000000pt" viewBox="0 0 2501.000000 2501.000000"
 preserveAspectRatio="xMidYMid meet">
<metadata>
Created by potrace 1.11, written by Peter Selinger 2001-2013
</metadata>
<g transform="translate(0.000000,2501.000000) scale(0.100000,-0.100000)"
fill="#000000" stroke="none">
<path d="M23230 23329 c-343 -44 -653 -267 -812 -584 -81 -160 -114 -326 -105
-524 11 -243 90 -447 250 -640 123 -150 340 -285 542 -338 88 -23 120 -26 260
-27 232 0 390 42 566 153 350 220 537 599 498 1008 -35 369 -252 685 -584 848
-200 98 -400 132 -615 104z m350 -209 c484 -116 774 -635 620 -1112 -72 -225
-230 -407 -447 -517 -34 -17 -102 -43 -150 -58 -77 -23 -105 -26 -228 -26
-113 -1 -155 4 -220 21 -386 106 -655 454 -655 849 0 224 96 452 259 614 76
75 131 114 227 163 187 93 386 115 594 66z"/>
<path d="M23235 22966 c-264 -50 -461 -232 -521 -481 -23 -95 -23 -278 0 -365
29 -110 82 -204 161 -288 84 -89 167 -142 280 -178 200 -64 495 -32 667 72
l58 35 0 280 0 279 -235 0 -235 0 0 -100 c0 -119 1 -120 115 -120 l76 0 -3
-102 -3 -103 -70 -18 c-190 -49 -376 20 -458 171 -77 141 -77 363 0 504 99
182 353 232 571 113 105 -58 136 -47 212 80 l34 58 -39 34 c-48 42 -158 96
-240 118 -82 22 -282 28 -370 11z"/>
<path d="M12030 22340 c-1393 -61 -2591 -329 -3741 -836 -1467 -647 -2659
-1582 -3582 -2809 -916 -1220 -1531 -2717 -1756 -4280 -87 -603 -117 -1092
-108 -1740 6 -404 12 -524 42 -860 182 -2023 975 -3909 2261 -5375 143 -164
472 -499 649 -663 1183 -1093 2779 -1895 4445 -2236 698 -142 1324 -207 2115
-218 1776 -25 3274 289 4730 992 2120 1022 3705 2801 4528 5081 242 670 423
1450 506 2184 45 397 60 639 68 1085 27 1642 -294 3152 -970 4549 -420 867
-970 1653 -1635 2338 l-160 164 -3 455 c-4 415 -3 454 11 430 9 -14 196 -370
415 -790 273 -522 411 -776 435 -801 63 -63 98 -75 247 -78 123 -3 137 -2 186
21 29 13 68 40 86 60 21 22 188 330 440 814 224 428 411 786 416 795 7 10 9
-355 7 -1003 l-3 -1019 326 0 325 0 0 1580 0 1581 -359 -3 -360 -3 -36 -35
c-26 -26 -143 -248 -474 -905 -399 -793 -476 -949 -526 -1070 l-16 -40 -42
100 c-63 148 -935 1876 -960 1903 -48 51 -52 52 -421 52 l-346 0 -2 -734 -3
-733 -185 139 c-651 490 -1419 916 -2225 1233 -963 380 -1957 591 -3135 665
-225 14 -951 20 -1190 10z m1015 -3580 c590 -47 1120 -165 1615 -361 187 -74
557 -260 728 -368 562 -353 1009 -792 1376 -1353 657 -1004 996 -2312 996
-3838 0 -1768 -450 -3231 -1318 -4280 -133 -161 -442 -466 -600 -592 -921
-735 -2050 -1081 -3447 -1055 -334 6 -560 23 -832 62 -1503 217 -2659 958
-3398 2180 -188 310 -394 762 -518 1136 -254 762 -377 1597 -377 2549 0 948
123 1781 375 2536 442 1326 1222 2276 2333 2842 639 325 1336 502 2182 552
180 11 697 5 885 -10z"/>
</g>
</svg>
